<?xml version="1.0" encoding="UTF-8"?>
<!-- Speed Express Shipping — carte du monde décorative, fabriquée par
     outils/carte-monde.py. Ne pas modifier à la main. -->
<svg xmlns="http://www.w3.org/2000/svg" viewBox="0 24.0 720 272.0" role="img" aria-hidden="true" focusable="false">
<title>Carte du monde</title>
<path fill="none" stroke="#d5d9e0" stroke-width="3.1" stroke-linecap="round" stroke-dasharray="0.01 4.0" d="M252.5 17.5H292.5M242.5 22.5H312.5M242.5 27.5H312.5M552.5 27.5H572.5M247.5 32.5H317.5M517.5 32.5H622.5M252.5 37.5H317.5M437.5 37.5H662.5M42.5 42.5H142.5M257.5 42.5H307.5M382.5 42.5H687.5M32.5 47.5H177.5M262.5 47.5H297.5M382.5 47.5H712.5M27.5 52.5H192.5M267.5 52.5H287.5M317.5 52.5H327.5M377.5 52.5H707.5M32.5 57.5H207.5M272.5 57.5H272.5M372.5 57.5H702.5M87.5 62.5H217.5M372.5 62.5H682.5M92.5 67.5H222.5M342.5 67.5H342.5M352.5 67.5H352.5M382.5 67.5H677.5M102.5 72.5H227.5M342.5 72.5H357.5M377.5 72.5H672.5M107.5 77.5H232.5M352.5 77.5H352.5M367.5 77.5H667.5M112.5 82.5H232.5M357.5 82.5H657.5M112.5 87.5H232.5M352.5 87.5H642.5M112.5 92.5H222.5M347.5 92.5H372.5M382.5 92.5H632.5M647.5 92.5H647.5M112.5 97.5H217.5M342.5 97.5H362.5M387.5 97.5H627.5M642.5 97.5H642.5M117.5 102.5H212.5M342.5 102.5H357.5M392.5 102.5H392.5M402.5 102.5H407.5M427.5 102.5H622.5M122.5 107.5H207.5M342.5 107.5H347.5M367.5 107.5H382.5M432.5 107.5H617.5M637.5 107.5H637.5M127.5 112.5H202.5M347.5 112.5H392.5M432.5 112.5H612.5M627.5 112.5H627.5M127.5 117.5H197.5M342.5 117.5H417.5M432.5 117.5H602.5M132.5 122.5H192.5M342.5 122.5H422.5M432.5 122.5H452.5M462.5 122.5H602.5M137.5 127.5H162.5M192.5 127.5H192.5M337.5 127.5H462.5M477.5 127.5H597.5M142.5 132.5H172.5M332.5 132.5H427.5M437.5 132.5H472.5M492.5 132.5H597.5M147.5 137.5H182.5M197.5 137.5H207.5M327.5 137.5H427.5M437.5 137.5H472.5M502.5 137.5H532.5M542.5 137.5H587.5M157.5 142.5H187.5M207.5 142.5H222.5M327.5 142.5H432.5M442.5 142.5H467.5M502.5 142.5H527.5M547.5 142.5H577.5M167.5 147.5H187.5M327.5 147.5H432.5M442.5 147.5H462.5M507.5 147.5H522.5M552.5 147.5H572.5M602.5 147.5H607.5M182.5 152.5H192.5M332.5 152.5H437.5M447.5 152.5H452.5M512.5 152.5H517.5M552.5 152.5H572.5M602.5 152.5H607.5M192.5 157.5H197.5M217.5 157.5H227.5M337.5 157.5H442.5M512.5 157.5H517.5M557.5 157.5H567.5M602.5 157.5H607.5M212.5 162.5H242.5M337.5 162.5H457.5M522.5 162.5H522.5M557.5 162.5H567.5M602.5 162.5H607.5M207.5 167.5H247.5M342.5 167.5H452.5M557.5 167.5H562.5M207.5 172.5H252.5M382.5 172.5H447.5M202.5 177.5H257.5M382.5 177.5H442.5M572.5 177.5H572.5M602.5 177.5H607.5M202.5 182.5H262.5M382.5 182.5H442.5M587.5 182.5H597.5M612.5 182.5H627.5M202.5 187.5H272.5M387.5 187.5H437.5M592.5 187.5H592.5M602.5 187.5H607.5M632.5 187.5H637.5M202.5 192.5H287.5M387.5 192.5H437.5M637.5 192.5H652.5M202.5 197.5H287.5M387.5 197.5H437.5M642.5 197.5H657.5M207.5 202.5H282.5M387.5 202.5H437.5M642.5 202.5H642.5M212.5 207.5H282.5M392.5 207.5H437.5M447.5 207.5H452.5M617.5 207.5H647.5M217.5 212.5H282.5M392.5 212.5H437.5M447.5 212.5H457.5M612.5 212.5H647.5M222.5 217.5H277.5M392.5 217.5H432.5M447.5 217.5H457.5M602.5 217.5H652.5M222.5 222.5H277.5M392.5 222.5H427.5M452.5 222.5H452.5M592.5 222.5H657.5M222.5 227.5H267.5M392.5 227.5H427.5M587.5 227.5H657.5M222.5 232.5H257.5M397.5 232.5H422.5M587.5 232.5H662.5M222.5 237.5H252.5M397.5 237.5H417.5M587.5 237.5H662.5M222.5 242.5H247.5M397.5 242.5H412.5M592.5 242.5H662.5M222.5 247.5H242.5M397.5 247.5H412.5M592.5 247.5H592.5M627.5 247.5H657.5M217.5 252.5H237.5M637.5 252.5H657.5M217.5 257.5H237.5M652.5 257.5H652.5M712.5 257.5H712.5M217.5 262.5H232.5M217.5 267.5H227.5M697.5 267.5H697.5M212.5 272.5H227.5M212.5 277.5H222.5M222.5 282.5H222.5"/>
</svg>
